<svg height="512" viewBox="0 0 60 60" width="512" xmlns="http://www.w3.org/2000/svg" fill="#fff"><g id="008---Vegan-Chef" transform="translate(-1 -1)"><path id="Shape" d="m60.9 24.29c-.9598791-7.8708227-7.8298677-13.6677844-15.75-13.29-2.1123449-6.00471681-7.7845758-10.02229973-14.15-10.02229973s-12.0376551 4.01758292-14.15 10.02229973c-6.96486654-.466832-13.31353522 3.9834806-15.25 10.69-1.32495934 4.3827828-.57560403 9.1307124 2.03477746 12.892389 2.6103815 3.7616766 6.79589564 6.1251149 11.36522254 6.417611v17c0 .7956495.3160705 1.5587112.8786797 2.1213203.5626091.5626092 1.3256708.8786797 2.1213203.8786797h26c1.6568542 0 3-1.3431458 3-3v-17c4.0989198-.2734186 7.9063362-2.2159613 10.5334427-5.374159 2.6271064-3.1581977 3.8439817-7.255649 3.3665573-11.335841zm-17.69 14.41c-.3595416-.1052733-.7477671-.0007518-1.0058552.2708052s-.342742.6645932-.2193303 1.0183193c.1234117.3537262.4341856.6088014.8051855.6608755.7266973.1726822 1.4655065.2896882 2.21.35v9h-3c-.5522847 0-1 .4477153-1 1s.4477153 1 1 1h3v6c0 .5522847-.4477153 1-1 1h-3v-4c0-.5522847-.4477153-1-1-1s-1 .4477153-1 1v4h-7v-4c0-.5522847-.4477153-1-1-1s-1 .4477153-1 1v4h-7v-4c0-.5522847-.4477153-1-1-1s-1 .4477153-1 1v4h-3c-.5522847 0-1-.4477153-1-1v-6h20c.5522847 0 1-.4477153 1-1s-.4477153-1-1-1h-20v-9c.7432044-.0438535 1.4819997-.1441425 2.21-.3.3709999-.0520741.6817738-.3071493.8051855-.6608755.1234117-.3537261.0387578-.7467623-.2193303-1.0183193s-.6463136-.3760785-1.0058552-.2708052c-4.9674024 1.0801817-10.10868258-.8341248-13.16-4.9-6.3-8.32-.75-21.09 10.68-20.85-.2048767.9868881-.3087455 1.9920709-.31 3 0 .5522847.4477153 1 1 1s1-.4477153 1-1c0-7.17970175 5.8202983-13 13-13s13 5.82029825 13 13c0 .5522847.4477153 1 1 1s1-.4477153 1-1c.0014163-1.0075577-.0990953-2.0126744-.3-3 6.6907169-.0884283 12.3809914 4.861508 13.22 11.5.4865749 4.1760165-1.0764544 8.3295264-4.1954332 11.1487179s-7.4087875 3.9559617-11.5145668 3.0512821z"/><path id="Shape" d="m42.43 22.13c-1.43-.49-1.83 1.27-5.37 1.87-2.1776097.1969941-4.2563239 1.0007636-6 2.32-.38076-1.167754-1.035699-2.227315-1.91-3.09-1.72-1.72-3.68-2.17-5.88-2.55-1.2531544-.2193558-2.4418458-.7146439-3.48-1.45-.3893205-.2655633-.8808126-.3327207-1.3271049-.1813352s-.7954926.5037116-.9428951.9513352c-1.67 5.22.55 12.39 6.4 14.35 1.6646631.5486931 3.4278827.7328592 5.17.54.5089349-.0563151.8931062-.4879683.89-1 0-3 .74-4.42 1.92-5.62 1.51-1.52 3.3-1.93 5.48-2.3 1.5133916-.2636619 2.9585467-.8281225 4.25-1.66 1.26 4.92-.92 11.35-6 13.06-1.157638.3876659-2.369216.590158-3.59.6 1.4402154-2.7602224 3.492519-5.1545766 6-7 .3132699-.20088.4890783-.5591024.4563284-.9298021-.0327499-.3706996-.2686403-.69255-.6122769-.8353947-.3436367-.1428448-.7381703-.0830525-1.0240515.1551968-3.2535168 2.3070105-5.7850348 5.4904812-7.3 9.18-.0990048.286464-.0627448.6023721.0985909.8589542.1613358.2565821.430335.4261465.7314091.4610458 1.9726005.2233273 3.9701797.0082034 5.85-.63 6.57-2.21 9-10.32 7.09-16.22-.1552886-.4118718-.484743-.734005-.9-.88zm-14.11 8.78c-1.1420441-2.183333-2.8043518-4.0517119-4.84-5.44-.4473506-.325848-1.074152-.2273506-1.4.22-.325848.4473507-.2273506 1.074152.22 1.4 3.7 2.67 4.51 5.21 4.7 5.91-.816208-.0642322-1.6218725-.2253651-2.4-.48-4.38-1.46-6.31-6.95-5.3-11.2 1.1308786.6943426 2.3886458 1.156657 3.7 1.36 1.92.33 3.5.69 4.81 2 .9592226.9443591 1.551185 2.1991774 1.67 3.54-.5489416.8176248-.9422002 1.729578-1.16 2.69z"/></g></svg>